<svg width="20" height="21" viewBox="0 0 20 21" fill="none" xmlns="http://www.w3.org/2000/svg">
<path d="M1 9.5C1 5.729 1 3.843 2.172 2.672C3.344 1.501 5.229 1.5 9 1.5H11C14.771 1.5 16.657 1.5 17.828 2.672C18.999 3.844 19 5.729 19 9.5V11.5C19 15.271 19 17.157 17.828 18.328C16.656 19.499 14.771 19.5 11 19.5H9C5.229 19.5 3.343 19.5 2.172 18.328C1.001 17.156 1 15.271 1 11.5V9.5Z" stroke="#F2FFFF" stroke-width="2"/>
<path d="M14.5 7.5C15.3284 7.5 16 6.82843 16 6C16 5.17157 15.3284 4.5 14.5 4.5C13.6716 4.5 13 5.17157 13 6C13 6.82843 13.6716 7.5 14.5 7.5Z" fill="#F2FFFF"/>
<path d="M10 13.5C11.6569 13.5 13 12.1569 13 10.5C13 8.84315 11.6569 7.5 10 7.5C8.34315 7.5 7 8.84315 7 10.5C7 12.1569 8.34315 13.5 10 13.5Z" stroke="#F2FFFF" stroke-width="2"/>
</svg>
